<?xml version="1.0" standalone="no"?>
<!DOCTYPE svg PUBLIC "-//W3C//DTD SVG 20010904//EN"
 "http://www.w3.org/TR/2001/REC-SVG-20010904/DTD/svg10.dtd">
<svg version="1.0" xmlns="http://www.w3.org/2000/svg"
 width="500.000000pt" height="500.000000pt" viewBox="0 0 500.000000 500.000000"
 preserveAspectRatio="xMidYMid meet">

<g transform="translate(0.000000,500.000000) scale(0.100000,-0.100000)"
fill="#000000" stroke="none">
<path d="M2735 3676 c-103 -45 -123 -185 -37 -255 31 -26 45 -31 91 -31 100 0
158 63 149 162 -6 55 -40 101 -95 124 -40 17 -69 17 -108 0z"/>
<path d="M2157 2750 c-5 -19 0 -20 139 -20 79 0 144 -2 144 -5 0 -2 -80 -233
-178 -512 -202 -575 -212 -607 -212 -689 0 -77 24 -121 81 -154 39 -22 56 -25
144 -25 93 0 105 2 167 33 81 40 146 102 192 185 49 87 52 97 30 97 -13 0 -31
-21 -54 -61 -40 -70 -115 -149 -179 -191 -60 -37 -127 -39 -160 -4 -18 19 -23
36 -23 74 0 59 -7 37 233 730 104 299 189 548 189 553 0 5 -105 9 -254 9 -245
0 -254 -1 -259 -20z"/>
</g>
</svg>
